<svg xmlns="http://www.w3.org/2000/svg" viewBox="38 48 224 203.5" fill="currentColor" role="img" aria-label="VERVENA">
  <g transform="translate(0,300) scale(0.1,-0.1)" stroke="none">
    <path d="M380 2506 c0 -9 19 -15 57 -20 31 -4 71 -16 90 -27 36 -23 102 -94
120 -130 28 -56 103 -219 103 -224 0 -2 30 -69 66 -147 85 -185 103 -225 150
-332 l39 -89 13 44 c8 24 14 77 14 117 -1 62 -6 82 -36 143 -35 71 -43 115
-26 154 6 15 9 6 10 -35 l2 -55 20 61 21 61 -57 140 c-59 149 -68 201 -41 253
21 41 63 70 101 70 24 0 34 5 34 15 0 13 -44 15 -340 15 -280 0 -340 -2 -340
-14z"/>
    <path d="M1990 2506 c0 -8 16 -15 41 -19 70 -9 116 -71 111 -148 -2 -24 -49
-151 -86 -234 -8 -16 -26 -59 -41 -95 -15 -36 -33 -78 -40 -95 -8 -16 -26 -59
-40 -95 -14 -36 -37 -89 -51 -118 -13 -29 -24 -55 -24 -58 0 -3 -11 -29 -23
-57 -13 -29 -32 -74 -42 -102 -10 -27 -22 -55 -27 -61 -4 -6 -14 -28 -22 -50
-7 -21 -25 -64 -39 -94 -13 -30 -50 -116 -81 -190 -111 -266 -111 -265 -124
-231 -8 22 -11 19 -60 -41 -29 -34 -55 -73 -58 -84 -4 -14 9 -53 34 -105 21
-46 45 -99 53 -117 20 -46 38 -36 60 33 10 33 19 61 19 61 0 1 -17 -2 -37 -6
-49 -11 -63 1 -53 43 4 18 11 40 15 51 5 11 3 21 -6 27 -11 7 -11 9 3 9 15 0
86 109 119 183 11 24 17 27 61 27 l48 0 24 53 c30 67 75 163 143 307 31 63 70
149 88 190 18 41 54 120 80 175 67 143 114 244 135 290 80 178 176 375 195
400 62 82 147 135 218 135 26 0 37 4 37 15 0 13 -42 15 -315 15 -260 0 -315
-2 -315 -14z"/>
    <path d="M1019 1954 c-18 -66 -17 -120 3 -140 15 -15 17 -12 27 35 14 67 13
100 -3 130 -12 22 -13 22 -27 -25z"/>
    <path d="M1062 1842 c-7 -32 -12 -92 -12 -133 1 -74 1 -74 17 -44 9 17 27 45
41 62 l24 32 -28 71 c-15 38 -28 70 -29 70 0 0 -6 -26 -13 -58z"/>
    <path d="M1122 1718 c-19 -19 -14 -30 8 -18 11 6 20 15 20 20 0 14 -14 12 -28
-2z"/>
    <path d="M1103 1653 c-56 -53 -105 -153 -74 -153 5 0 43 28 84 62 74 61 74 61
64 95 -6 18 -16 33 -22 33 -6 0 -30 -17 -52 -37z"/>
    <path d="M1154 1577 c-35 -33 -37 -36 -16 -37 12 0 32 6 45 13 12 6 23 12 25
13 1 1 -1 11 -6 24 -9 23 -9 23 -48 -13z"/>
    <path d="M1190 1540 c-18 -11 -13 -16 24 -26 26 -6 27 -5 17 15 -13 23 -19 25
-41 11z"/>
    <path d="M1073 1510 c-36 -22 -40 -39 -19 -78 8 -15 17 -35 20 -45 8 -25 54
-40 109 -33 44 5 47 4 36 -10 -10 -13 -25 -15 -66 -10 -29 3 -53 5 -53 3 0 -4
84 -194 134 -302 20 -43 46 -87 56 -98 11 -10 20 -30 20 -45 0 -15 13 -53 28
-86 l28 -59 44 59 c25 33 51 65 58 72 6 7 12 17 12 22 0 5 -43 116 -96 247
-53 131 -98 244 -101 251 -3 7 -16 15 -29 18 -13 3 -26 14 -29 23 -3 10 -20
32 -39 50 l-34 33 -28 -29 -28 -28 55 -11 54 -12 -55 -1 c-31 0 -62 -7 -69
-13 -11 -11 -13 -10 -7 5 3 10 6 22 6 27 0 5 12 22 26 39 30 36 15 41 -33 11z"/>
    <path d="M1225 1460 c16 -16 32 -30 36 -30 4 0 2 14 -4 30 -8 22 -18 30 -36
30 l-25 0 29 -30z"/>
    <path d="M1622 921 c-16 -11 -102 -173 -96 -182 3 -5 9 -7 14 -4 5 3 11 1 15
-5 4 -6 -5 -10 -22 -10 -23 0 -31 -7 -46 -40 -26 -61 -23 -74 14 -66 17 3 37
6 45 6 7 0 16 10 20 23 4 12 33 79 65 149 33 70 59 128 59 130 0 6 -59 5 -68
-1z"/>
  </g>
</svg>
